<?xml version="1.0" standalone="no"?>
<!DOCTYPE svg PUBLIC "-//W3C//DTD SVG 20010904//EN"
 "http://www.w3.org/TR/2001/REC-SVG-20010904/DTD/svg10.dtd">
<svg version="1.0" xmlns="http://www.w3.org/2000/svg"
 width="1920.000000pt" height="1080.000000pt" viewBox="0 0 1920.000000 1080.000000"
 preserveAspectRatio="xMidYMid meet">

<g transform="translate(0.000000,1080.000000) scale(0.100000,-0.100000)"
fill="#000000" stroke="none">
<path d="M6095 10640 c-1235 -278 -2310 -959 -3070 -1945 -538 -698 -900
-1533 -1040 -2398 -53 -330 -60 -425 -60 -857 0 -432 7 -527 60 -857 214
-1327 935 -2537 2000 -3358 642 -495 1397 -840 2200 -1004 l140 -29 8 22 c11
30 88 95 112 96 25 0 125 99 125 122 0 9 11 29 24 45 37 45 56 89 56 133 0 27
13 66 40 120 l40 80 0 140 c0 121 3 146 20 180 33 64 23 120 -21 120 -10 0
-31 12 -48 26 -27 23 -31 32 -31 77 -1 57 -8 65 -111 121 -25 13 -51 32 -58
40 -8 9 -21 16 -31 16 -9 0 -29 9 -43 20 -14 11 -33 20 -43 20 -9 0 -34 18
-55 40 -21 22 -48 40 -59 40 -25 0 -111 43 -129 64 -8 9 -22 16 -33 16 -10 0
-36 9 -58 20 -37 19 -59 20 -400 20 -341 0 -363 1 -400 20 -22 11 -50 20 -63
20 -13 0 -32 9 -43 21 -10 12 -39 32 -64 44 -25 13 -61 40 -80 60 -19 20 -55
47 -80 60 -25 13 -61 39 -79 59 -33 34 -39 36 -96 36 l-60 0 -80 80 c-44 44
-88 80 -97 80 -10 0 -55 18 -101 41 -89 45 -177 121 -177 154 0 25 -59 85 -82
85 -9 0 -30 12 -47 26 -29 24 -31 31 -31 90 0 45 -6 77 -20 104 -11 22 -20 58
-20 80 0 22 -9 58 -20 80 -16 32 -20 59 -20 144 l0 104 -35 21 c-19 11 -35 24
-35 29 0 5 -15 16 -32 23 -61 25 -127 98 -174 191 l-44 88 0 120 c0 150 -11
180 -68 180 -44 0 -92 41 -92 78 0 13 -9 40 -20 62 -17 33 -20 59 -20 158 0
106 -2 121 -20 137 -19 18 -20 31 -20 460 l0 441 -40 39 -40 39 0 273 c0 254
1 277 20 313 11 22 20 57 20 79 0 27 8 48 24 68 31 38 96 167 96 193 0 12 9
38 20 60 11 22 20 58 20 80 0 22 9 58 20 80 11 22 20 59 20 83 0 37 5 48 41
82 22 22 60 78 84 125 29 57 62 103 99 140 31 30 56 62 56 72 0 31 46 111 84
147 35 34 36 37 36 112 0 61 4 81 20 102 11 14 20 32 20 41 0 22 45 109 64
125 13 11 16 34 16 113 0 79 4 107 20 138 11 22 20 49 20 60 0 11 9 38 20 60
11 22 20 48 20 60 0 11 18 57 41 103 47 94 138 195 209 232 25 13 88 67 140
120 78 79 111 104 181 140 47 24 91 51 99 60 7 9 32 26 54 37 52 26 116 87
116 110 0 10 18 38 40 62 22 24 40 50 40 58 0 26 40 68 89 93 26 13 53 31 61
40 8 9 50 35 94 57 94 46 148 94 182 160 25 49 66 88 94 88 9 0 25 9 34 19 10
11 35 22 57 26 21 4 55 20 76 37 21 16 58 40 83 53 25 13 61 40 80 60 19 20
55 47 80 60 25 13 90 69 145 124 94 95 102 101 141 101 28 0 46 6 59 20 13 14
31 20 62 20 24 0 61 9 83 20 22 11 59 20 82 20 37 0 47 5 71 35 15 19 49 46
76 59 26 14 53 32 61 41 7 9 32 26 54 37 23 11 58 36 79 56 l37 36 0 106 0
106 -60 59 c-35 35 -60 68 -60 80 0 25 -59 85 -82 85 -22 0 -78 48 -78 66 0
12 -34 14 -193 14 -189 0 -194 1 -215 23 -31 33 -28 70 9 101 l31 26 -29 -1
c-15 0 -104 -18 -198 -39z"/>
<path d="M10360 10641 c-14 -11 -35 -21 -47 -21 -12 0 -38 -14 -57 -30 -37
-33 -40 -48 -52 -205 -5 -63 -2 -76 23 -125 19 -38 36 -57 53 -62 14 -4 58
-17 97 -29 42 -12 86 -19 105 -16 27 4 51 -6 128 -49 630 -356 1209 -867 1643
-1448 616 -826 977 -1792 1057 -2825 5 -74 10 -250 10 -391 0 -277 -10 -439
-41 -680 -191 -1492 -994 -2830 -2219 -3697 -109 -78 -118 -88 -119 -139 -1
-21 -12 -40 -36 -64 -19 -19 -35 -38 -35 -43 0 -5 -14 -26 -30 -48 -47 -59
-63 -117 -58 -210 4 -74 7 -82 38 -114 19 -19 41 -35 50 -35 9 0 29 -13 44
-29 18 -19 49 -34 92 -46 60 -16 90 -16 157 1 29 7 63 -14 76 -48 11 -31 465
112 784 248 820 349 1573 944 2120 1676 503 674 848 1489 982 2321 182 1130 5
2281 -505 3282 -259 508 -542 903 -940 1309 -429 438 -873 760 -1415 1026
-415 204 -804 337 -1240 425 -170 34 -458 76 -505 74 -14 -1 -50 2 -80 5 -46
6 -59 4 -80 -13z"/>
<path d="M3520 5205 c13 -14 26 -25 28 -25 3 0 -5 11 -18 25 -13 14 -26 25
-28 25 -3 0 5 -11 18 -25z"/>
<path d="M6400 1725 c13 -14 26 -25 28 -25 3 0 -5 11 -18 25 -13 14 -26 25
-28 25 -3 0 5 -11 18 -25z"/>
</g>
</svg>
