<svg xmlns="http://www.w3.org/2000/svg" width="2208.402" height="313.676" viewBox="0 0 2208.402 313.676">
  <path id="Path_13" data-name="Path 13" d="M9,843.108s341.056,96.8,417.461,39.6c2.375-1.262,9.6-4.66,20.534-9.651,11.815-5.393,27.907-12.616,46.519-20.833C566.372,820.057,676.578,773.242,707.274,767c196.174-39.861,465.617,53.013,561.182,115.7,117.692,77.2,400.128,73.047,518.6,0s136.536-93.488,240.855-85.8c4.033.3,18.01,7.366,29.048,14.224,5.486,3.408,10.32,6.867,12.283,9.151,3.483,4.054,77.891,30.771,81.948,31.938,89.122,25.619,62.479,77.25,62.479,77.25s-164.728,137.179-157.3,140.228S9,1069.7,9,1069.7Z" transform="translate(-9 -757.381)" fill="#E3F2FD"/>
</svg>